<?xml version="1.0" standalone="no"?>
<!DOCTYPE svg PUBLIC "-//W3C//DTD SVG 20010904//EN"
 "http://www.w3.org/TR/2001/REC-SVG-20010904/DTD/svg10.dtd">
<svg version="1.0" xmlns="http://www.w3.org/2000/svg"
 width="423.000000pt" height="140.000000pt" viewBox="0 0 423.000000 140.000000"
 preserveAspectRatio="xMidYMid meet">

<g transform="translate(0.000000,140.000000) scale(0.100000,-0.100000)"
fill="#000000" stroke="none">
<path d="M595 1394 c-156 -25 -281 -89 -390 -199 -89 -88 -138 -170 -177 -295
-29 -96 -32 -270 -5 -369 67 -247 260 -440 507 -507 101 -28 284 -26 380 4
200 63 347 184 439 362 78 151 95 276 51 365 -14 28 -31 50 -39 50 -24 0 -49
-56 -81 -179 -36 -141 -75 -219 -154 -304 -113 -120 -256 -182 -423 -182 -178
0 -290 47 -419 175 -63 62 -89 97 -118 158 -119 247 -62 530 143 718 72 66
188 128 281 150 115 27 281 13 389 -33 24 -10 46 -16 48 -14 9 9 -113 64 -176
81 -66 17 -204 27 -256 19z"/>
<path d="M2852 1129 c-72 -12 -143 -50 -185 -100 -103 -120 -101 -363 2 -481
122 -138 415 -136 534 3 46 54 67 115 74 215 14 200 -85 334 -268 364 -72 11
-83 11 -157 -1z m156 -169 c44 -27 65 -79 65 -165 0 -135 -42 -195 -137 -195
-60 0 -95 21 -123 73 -24 45 -23 190 1 235 35 68 127 92 194 52z"/>
<path d="M553 889 l-233 -228 0 -108 0 -108 145 145 145 145 0 -145 0 -145
143 143 c78 78 146 142 150 142 4 0 7 -65 7 -145 l0 -145 85 0 c60 0 87 4 90
13 3 6 4 160 3 340 l-3 328 -145 -139 -145 -140 -5 138 -5 138 -232 -229z"/>
<path d="M1730 790 l0 -330 85 0 85 0 2 246 3 245 54 -213 c30 -117 58 -228
63 -246 l9 -33 77 3 76 3 60 238 61 237 3 -240 2 -240 85 0 85 0 0 330 0 330
-135 0 -134 0 -10 -37 c-6 -21 -26 -103 -46 -183 -19 -80 -39 -153 -43 -163
-5 -12 -24 49 -58 180 l-50 198 -137 3 -137 3 0 -331z"/>
<path d="M3390 790 l0 -330 265 0 265 0 0 80 0 80 -160 0 -160 0 0 250 0 250
-105 0 -105 0 0 -330z"/>
<path d="M4020 790 l0 -330 105 0 105 0 0 330 0 330 -105 0 -105 0 0 -330z"/>
<path d="M1730 280 l0 -40 1250 0 1250 0 0 40 0 40 -1250 0 -1250 0 0 -40z"/>
</g>
</svg>
